<?xml version="1.0" encoding="UTF-8" standalone="no"?>
<!-- Created with Inkscape (http://www.inkscape.org/) -->

<svg
   xmlns:dc="http://purl.org/dc/elements/1.1/"
   xmlns:cc="http://creativecommons.org/ns#"
   xmlns:rdf="http://www.w3.org/1999/02/22-rdf-syntax-ns#"
   xmlns:svg="http://www.w3.org/2000/svg"
   xmlns="http://www.w3.org/2000/svg"
   xmlns:sodipodi="http://sodipodi.sourceforge.net/DTD/sodipodi-0.dtd"
   xmlns:inkscape="http://www.inkscape.org/namespaces/inkscape"
   width="2125.9841"
   height="1417.3228"
   id="svg2"
   version="1.1"
   inkscape:version="0.48.5 r10040"
   sodipodi:docname="table-lamp-01-3mm.svg">
  <defs
     id="defs4" />
  <sodipodi:namedview
     id="base"
     pagecolor="#ffffff"
     bordercolor="#666666"
     borderopacity="1.0"
     inkscape:pageopacity="0.0"
     inkscape:pageshadow="2"
     inkscape:zoom="0.29988416"
     inkscape:cx="411.36523"
     inkscape:cy="770.24045"
     inkscape:document-units="mm"
     inkscape:current-layer="layer1"
     showgrid="true"
     inkscape:snap-grids="true"
     units="mm"
     inkscape:window-width="1215"
     inkscape:window-height="776"
     inkscape:window-x="65"
     inkscape:window-y="24"
     inkscape:window-maximized="1"
     showguides="true"
     inkscape:guide-bbox="true"
     inkscape:snap-to-guides="false"
     inkscape:snap-object-midpoints="false"
     inkscape:snap-nodes="true"
     inkscape:snap-global="true"
     inkscape:snap-bbox="false">
    <inkscape:grid
       type="xygrid"
       id="grid2985"
       empspacing="5"
       visible="true"
       enabled="true"
       snapvisiblegridlinesonly="true"
       units="mm"
       spacingx="10mm"
       spacingy="10mm" />
  </sodipodi:namedview>
  <metadata
     id="metadata7">
    <rdf:RDF>
      <cc:Work
         rdf:about="">
        <dc:format>image/svg+xml</dc:format>
        <dc:type
           rdf:resource="http://purl.org/dc/dcmitype/StillImage" />
        <dc:title></dc:title>
      </cc:Work>
    </rdf:RDF>
  </metadata>
  <g
     inkscape:label="Layer 1"
     inkscape:groupmode="layer"
     id="layer1"
     transform="translate(0,364.96067)">
    <path
       inkscape:connector-curvature="0"
       style="fill:none;stroke:#000000;stroke-opacity:1;stroke-width:1.06299213;stroke-miterlimit:4;stroke-dasharray:none"
       d="m 1300.5148,304.16609 -2.875,47.15625 c -12.8644,4.78244 -24.0282,13.03139 -32.4063,23.59375 l -45.7812,-11.875 -5.5625,17.1875 20.1875,6.5625 -3.0313,9.4375 -20.2187,-6.5625 -5.5938,17.1875 43.9688,17.28125 c 0.5687,14.0859 5.0656,27.147 12.4062,38.15625 l -25.4062,39.84375 14.5937,10.625 12.5,-17.1875 8,5.8125 -12.4687,17.1875 14.625,10.65625 30.0625,-36.5 c 6.3762,1.77896 13.0874,2.75 20.0313,2.75 6.9426,0 13.6559,-0.97198 20.0312,-2.75 l 30.0625,36.5 14.625,-10.625 -12.5,-17.1875 8,-5.84375 12.5,17.21875 14.625,-10.65625 -25.4063,-39.84375 c 7.3358,-10.99997 11.8323,-24.0506 12.4063,-38.125 l 43.9687,-17.3125 -5.5624,-17.15625 -20.2188,6.5625 -3.0625,-9.4375 20.2187,-6.5625 -5.5937,-17.21875 -45.75,11.875 c -8.3776,-10.56569 -19.5639,-18.8131 -32.4375,-23.59375 l -2.875,-47.15625 -18.0625,0 0,21.25 -9.9063,0 0,-21.25 -18.0937,0 z"
       id="path4454-3" />
    <path
       style="fill:none;stroke:#000000;stroke-opacity:1;stroke-width:1.06299213;stroke-miterlimit:4;stroke-dasharray:none"
       d="m 662.05492,474.56956 44.2012,-10.73975 c 14.7094,25.97616 39.2552,44.42437 67.2873,51.92165 l 0.7939,45.48773 18.0669,0.5342 0.6025,-21.2783 9.9479,0.2758 -0.6325,21.2871 18.067,0.5341 3.4138,-45.35321 c 2.9656,-0.60977 5.9348,-1.34855 8.8921,-2.21525 26.3095,-7.71059 47.5298,-24.39886 61.3271,-45.75067 l 43.4973,13.30368 6.053,-17.01412 -20.0394,-7.15279 3.3492,-9.35065 20.0393,7.15282 6.0917,-16.99286 -42.0261,-17.2844 c 0.9593,-8.46415 0.9101,-17.13646 -0.1798,-25.83598 l -104.0306,30.4885 c -9.3896,2.75182 -19.235,-2.63069 -21.9868,-12.02035 -2.7519,-9.38966 2.6307,-19.23495 12.0202,-21.98677 l 104.0307,-30.4885 c -3.776,-7.90094 -8.4068,-15.18652 -13.7769,-21.78599 l 26.048,-37.23495 -14.3006,-11.01654 -13.0081,16.83809 -7.8667,-6.0635 13.0083,-16.83813 -14.2794,-11.05525 -29.4351,34.67814 c -23.14,-10.52664 -50.0114,-13.12054 -76.3209,-5.40995 -2.9574,0.86673 -5.8554,1.84747 -8.6811,2.93498 l -27.3547,-36.33585 -14.9205,10.20188 12.0228,17.57818 -8.2253,5.60192 -11.9928,-17.58698 -14.9205,10.20178 23.8852,38.72034 c -19.5606,21.44392 -30.257,50.21304 -28.6165,80.02839 l -43.0058,14.8182 5.0799,17.33343 20.4224,-5.98521 2.7948,9.53639 -20.4223,5.98521 5.0799,17.33344 z"
       id="path4084-7-3-0-2-3"
       inkscape:connector-curvature="0" />
    <path
       inkscape:connector-curvature="0"
       style="fill:none;stroke:#000000;stroke-opacity:1;stroke-width:1.06299213;stroke-miterlimit:4;stroke-dasharray:none"
       d="m 17.536153,-364.96054 c -8.4519496,-0.0385 -17.78089958,8.19342 -17.53124958,17.71876 0.24964,9.52533 0.29289,5.49438 0.5,9.65625 0.45895,9.05889 1.15571998,18.03511 2.06249998,26.96875 0.90677,8.93364 2.03151,17.82774 3.375,26.625 1.34348,8.79726 2.91844,17.5065 4.6874996,26.15624 1.76905,8.6497 3.75399,17.2279 5.9375,25.7187 2.1835,8.4916 4.56941,16.8975 7.15625,25.2188 2.58683,8.3213 5.33347,16.5471 8.3125,24.6875 2.97903,8.1404 6.17114,16.2078 9.53125,24.1563 3.3601,7.9471 6.89495,15.786 10.625,23.5312 3.73004,7.7452 7.66112,15.3758 11.75,22.9062 4.08887,7.5324 8.34468,14.975805 12.78125,22.281305 4.43656,7.3055 9.03936,14.4936 13.8125,21.5625 4.77313,7.0689 9.713907,14.0221 14.812487,20.8438 5.09857,6.8199 10.36834,13.501 15.78125,20.0624 5.4129,6.564 10.97141,12.9889 16.6875,19.2812995 5.71609,6.2924 11.58558,12.4581 17.59375,18.4687005 6.00816,6.0118 12.14839,11.8747 18.4375,17.5938 6.2891,5.7191 12.72233,11.3023 19.28125,16.7188 6.55893,5.4145 13.24489,10.6482 20.0625,15.75 6.8176,5.1005 13.77858,10.068 20.84375,14.8437 7.06518,4.7757 14.26089,9.3736 21.5625,13.8125 7.30161,4.4389 14.69182,8.7215 22.21875,12.812495 7.52693,4.091 15.16513,7.9873 22.90625,11.7187 7.74111,3.7328 15.58708,7.2944 23.53125,10.6563 7.94418,3.3619 15.9889,6.5194 24.125,9.5 8.13611,2.9806 16.37058,5.7868 24.6875,8.375 8.31692,2.5882 16.70089,4.9715 25.1875,7.1563 8.48661,2.1832 17.07358,4.1675 25.71875,5.9374 8.64516,1.7712 17.36365,3.3121 26.15625,4.6563 8.7926,1.3442 17.66485,2.4677 26.59375,3.375 8.92891,0.9073 17.91466,1.6033 26.96875,2.0625 9.05409,0.4592 18.1756,0.6875 27.34375,0.6875 9.16815,0 18.28966,-0.2283 27.34375,-0.6875 9.05409,-0.4592 18.03984,-1.1552 26.96875,-2.0625 8.92891,-0.9073 17.80115,-2.0308 26.59375,-3.375 8.7926,-1.3442 17.51108,-2.886 26.15625,-4.6563 8.64517,-1.7699 17.20089,-3.7528 25.6875,-5.9374 8.48661,-2.1848 16.87058,-4.5681 25.1875,-7.1563 8.31692,-2.5882 16.58264,-5.3944 24.71875,-8.375 8.13611,-2.9806 16.14957,-6.1381 24.09375,-9.5 7.94418,-3.3619 15.79014,-6.9237 23.53125,-10.6563 7.74112,-3.7304 15.41057,-7.6277 22.9375,-11.7187 7.52698,-4.090995 14.91718,-8.373595 22.21878,-12.812495 7.3016,-4.4389 14.4973,-9.0368 21.5625,-13.8125 7.0652,-4.7757 14.0261,-9.7431 20.8437,-14.8437 6.8176,-5.1024 13.4723,-10.3343 20.0313,-15.75 6.5589,-5.4158 13.0234,-10.9997 19.3125,-16.7188 6.2891,-5.7191 12.4293,-11.5819 18.4375,-17.5938 6.0081,-6.0099005 11.8464,-12.1763005 17.5625,-18.4687005 5.7161,-6.2923995 11.3058,-12.7181995 16.7187,-19.2812995 5.4129,-6.5609 10.6827,-13.242 15.7813,-20.0624 14.4622,-17.1821 34.9647,-44.5053 53.34373,-63.031305 70.5893,-70.6344 168.0946,-114.3125 275.8125,-114.3125 199.4606,0 363.9206,149.809705 387.2187,343.0938 1.5107,5.2104 5.6299,12.2812 16.8438,12.2812 l 10.6562,0 0,-478.34374 c 0,-9.49668 -8.828,-17.71876 -17.7187,-17.71876 l -708.65623,0 c -9.4696,0 -17.8307,4.1141 -18.2188,17.71876 -0.388,13.60465 -9.3401,17.71875 -17.7187,17.71875 l -7.7813,0 0,21.28125 -9.9062,0 0,-21.28125 -43.21914,0 3.4e-4,21.28125 -9.9062,0 0,-21.28125 -40.4688,0 c 0,0 -12.1953,0.023 -16.3437,10.15625 -21.8059,134.86584 -138.67569,237.876045 -279.62503,237.874945 -151.34808,0 -274.85676,-118.531705 -282.78125,-267.968695 -0.63139,-4.46225 -3.33626,-14.18334 -15.125,-15.34376 l -3,-0.0312 -153.093737,-0.125 0,21.28126 -9.9375,0 0,-21.03126 -49.5625,-0.25 z m 127.562487,80.03126 c 30.47556,0 57.33453,15.35045 73.28125,38.68744 l 6.4375,0 0,5.3126 -159.468737,0 0,-5.3126 6.4375,0 c 15.94683,-23.33699 42.837017,-38.68744 73.312487,-38.68744 z m 772.43753,0 c 30.4755,0 57.3345,15.3504 73.2812,38.68744 l 6.4375,0 0,5.3126 -159.4375,0 0,-5.3126 6.4063,0 c 15.9468,-23.33704 42.837,-38.68744 73.3125,-38.68744 z m -671.43753,120.46874 c 30.47556,0 57.30328,15.3504 73.25,38.6875 l 6.4375,0 0,5.3125 -159.4375,0 0,-5.3125 6.4375,0 c 15.94683,-23.3371 42.83703,-38.6875 73.3125,-38.6875 z m 570.46873,0 c 30.4756,0 57.3346,15.3504 73.2813,38.6875 l 6.4062,0 0,5.3125 -159.43748,0 0,-5.3125 6.4375,0 c 15.94683,-23.3371 42.83703,-38.6875 73.31248,-38.6875 z M 386.03614,-40.429235 c 30.47556,-7e-4 57.33453,15.3191 73.28125,38.6561995 l 6.4375,0 0,5.3438 -159.4375,0 0,-5.3438 6.40625,0 c 15.94683,-23.3370995 42.83703,-38.6561995 73.3125,-38.6561995 z m 290.5625,0 c 30.47556,-6e-4 57.33453,15.3191 73.28125,38.6561995 l 6.4375,0 0,5.3438 -159.46875,0 0,-5.3438 6.4375,0 c 15.94683,-23.3370995 42.83703,-38.6561995 73.3125,-38.6561995 z m -145.28125,127.5624 c 30.47556,0 57.33453,15.319095 73.28125,38.656295 l 6.4375,0 0,5.3125 -159.46875,0 0,-5.3125 6.4375,0 c 15.94683,-23.3372 42.83703,-38.656295 73.3125,-38.656295 z"
       id="path3884-1"
       sodipodi:nodetypes="cscssscsscscssccscsccssscsssccsssssssccssscsssccscscccscscsssssccccccccccscccccccccsccccccssccccccssccccccssccccccsccccccccccccccccsccccccs" />
    <path
       style="fill:none;stroke:#000000;stroke-opacity:1;stroke-width:1.06299213;stroke-miterlimit:4;stroke-dasharray:none"
       d="m 315.96956,272.21942 -28.46675,35.47853 c -27.50352,-11.60537 -58.20697,-11.24474 -84.99078,-0.0807 l -28.38367,-35.55465 -14.64003,10.60049 12.5058,17.22597 -8.04982,5.8512 -12.4874,-17.25123 -14.63995,10.60055 24.96792,38.01539 c -1.97755,2.29261 -3.87922,4.68961 -5.69341,7.18072 -16.13982,22.16185 -22.76983,48.3314 -20.67315,73.6665 l -42.579392,15.99994 5.58565,17.17317 20.241032,-6.56004 3.05194,9.45179 -20.24104,6.56003 5.54193,17.18004 43.84268,-11.94845 c 7.33763,12.14749 17.16675,23.05597 29.35783,31.93438 12.19108,8.8784 25.58956,14.88589 39.40265,18.14184 l 2.08182,45.39391 18.05186,0.003 0.0322,-21.27752 9.93222,0.004 -0.0322,21.27751 18.05866,0.0463 2.16178,-45.4349 c 24.75622,-5.77893 47.62861,-20.11963 63.76844,-42.28148 1.81424,-2.49117 3.51195,-5.03652 5.08714,-7.62224 l 43.84307,12.0976 5.59651,-17.18662 -20.25088,-6.59107 3.09867,-9.45699 20.23247,6.61634 5.59659,-17.18656 -42.54924,-16.10367 c 2.41329,-28.92461 -6.66582,-58.24432 -26.15768,-80.86541 l 25.03126,-37.9805 -14.60086,-10.63338 -12.52825,17.20276 -8.033,-5.8502 12.52825,-17.20275 -14.60087,-10.63338 z m -60.65467,122.40814 c 7.90941,5.76018 9.65219,16.84466 3.89203,24.75403 -5.76017,7.90939 -16.84464,9.65215 -24.75405,3.89196 -7.90933,-5.76012 -9.6521,-16.8446 -3.89194,-24.75397 5.76016,-7.90939 16.84464,-9.65215 24.75396,-3.89202 z"
       id="path4084-7-3-0-2-5-3"
       inkscape:connector-curvature="0" />
  </g>
  <g
     inkscape:groupmode="layer"
     id="layer3"
     inkscape:label="Info"
     style="display:inline">
    <text
       xml:space="preserve"
       style="font-size:40px;font-style:normal;font-weight:normal;line-height:125%;letter-spacing:0px;word-spacing:0px;fill:#000000;fill-opacity:1;stroke:none;font-family:Sans"
       x="1127.1105"
       y="1037.126"
       id="text3846-0"
       sodipodi:linespacing="125%"><tspan
         sodipodi:role="line"
         id="tspan3848-6"
         x="1127.1105"
         y="1037.126">You need 1 of these</tspan></text>
    <text
       xml:space="preserve"
       style="font-size:40px;font-style:normal;font-weight:normal;line-height:125%;letter-spacing:0px;word-spacing:0px;fill:#000000;fill-opacity:1;stroke:none;font-family:Sans"
       x="1169.2914"
       y="106.29913"
       id="text3846-6"
       sodipodi:linespacing="125%"><tspan
         sodipodi:role="line"
         id="tspan3848-2"
         x="1169.2914"
         y="106.29913">You need 5 of these</tspan></text>
    <text
       xml:space="preserve"
       style="font-size:40px;font-style:normal;font-variant:normal;font-weight:normal;font-stretch:normal;text-align:center;line-height:125%;letter-spacing:0px;word-spacing:0px;writing-mode:lr-tb;text-anchor:middle;fill:#000000;fill-opacity:1;stroke:none;font-family:Sans;-inkscape-font-specification:Sans"
       x="245.96295"
       y="1012.1259"
       id="text3846-0-0"
       sodipodi:linespacing="125%"><tspan
         sodipodi:role="line"
         id="tspan3848-6-1"
         x="245.96295"
         y="1012.1259">You need 1 of these</tspan><tspan
         sodipodi:role="line"
         x="245.96295"
         y="1062.126"
         id="tspan3922">or alternate version</tspan></text>
    <text
       xml:space="preserve"
       style="font-size:40px;font-style:normal;font-variant:normal;font-weight:normal;font-stretch:normal;text-align:center;line-height:125%;letter-spacing:0px;word-spacing:0px;writing-mode:lr-tb;text-anchor:middle;fill:#000000;fill-opacity:1;stroke:none;font-family:Sans;-inkscape-font-specification:Sans"
       x="802.16022"
       y="1012.1259"
       id="text3846-0-0-1"
       sodipodi:linespacing="125%"><tspan
         sodipodi:role="line"
         id="tspan3848-6-1-8"
         x="802.16022"
         y="1012.1259">You need 1 of these</tspan><tspan
         sodipodi:role="line"
         x="802.16022"
         y="1062.126"
         id="tspan3922-1">or alternate version</tspan></text>
  </g>
</svg>
