<?xml version="1.0" encoding="UTF-8" standalone="no"?>
<!-- Created with Inkscape (http://www.inkscape.org/) -->

<svg
   xmlns:dc="http://purl.org/dc/elements/1.1/"
   xmlns:cc="http://creativecommons.org/ns#"
   xmlns:rdf="http://www.w3.org/1999/02/22-rdf-syntax-ns#"
   xmlns:svg="http://www.w3.org/2000/svg"
   xmlns="http://www.w3.org/2000/svg"
   xmlns:sodipodi="http://sodipodi.sourceforge.net/DTD/sodipodi-0.dtd"
   xmlns:inkscape="http://www.inkscape.org/namespaces/inkscape"
   width="2125.9841"
   height="1417.3228"
   id="svg2"
   version="1.1"
   inkscape:version="0.48.5 r10040"
   sodipodi:docname="table-lamp-01-3mm-shades.svg">
  <defs
     id="defs4" />
  <sodipodi:namedview
     id="base"
     pagecolor="#ffffff"
     bordercolor="#666666"
     borderopacity="1.0"
     inkscape:pageopacity="0.0"
     inkscape:pageshadow="2"
     inkscape:zoom="0.30392365"
     inkscape:cx="645.11969"
     inkscape:cy="900.79321"
     inkscape:document-units="mm"
     inkscape:current-layer="layer2"
     showgrid="true"
     inkscape:snap-grids="true"
     units="mm"
     inkscape:window-width="1215"
     inkscape:window-height="776"
     inkscape:window-x="65"
     inkscape:window-y="24"
     inkscape:window-maximized="1"
     showguides="true"
     inkscape:guide-bbox="true"
     inkscape:snap-to-guides="false"
     inkscape:snap-object-midpoints="false"
     inkscape:snap-nodes="false"
     inkscape:snap-global="true">
    <inkscape:grid
       type="xygrid"
       id="grid2985"
       empspacing="5"
       visible="true"
       enabled="true"
       snapvisiblegridlinesonly="true"
       units="mm"
       spacingx="10mm"
       spacingy="10mm" />
  </sodipodi:namedview>
  <metadata
     id="metadata7">
    <rdf:RDF>
      <cc:Work
         rdf:about="">
        <dc:format>image/svg+xml</dc:format>
        <dc:type
           rdf:resource="http://purl.org/dc/dcmitype/StillImage" />
        <dc:title></dc:title>
      </cc:Work>
    </rdf:RDF>
  </metadata>
  <g
     inkscape:label="Layer 1"
     inkscape:groupmode="layer"
     id="layer1"
     transform="translate(0,364.96067)"
     style="display:inline">
    <path
       style="fill:none;stroke:#000000;stroke-width:1;stroke-opacity:1"
       d="m 69.294297,427.25548 c -9.815,0 -17.7188,7.9028 -17.7188,17.71652 l 0,8.84264 -10.625,0 0,-3.5308 -3.5624,-3.53081 -7.0626,0 0,173.6032 7.0626,0 3.5624,-3.56205 0,-3.53081 10.625,0 0,8.87389 c 0,9.81372 7.9038,17.71652 17.7188,17.71652 l 670.812493,0 c 9.815,0 17.7187,-7.9028 17.7187,-17.71652 l 0,-8.87389 10.625,0 0,3.53081 3.5626,3.56205 7.0624,0 0,-173.6032 -7.0624,0 -3.5626,3.53081 0,3.5308 -10.625,0 0,-8.84264 c 0,-9.81372 -7.9037,-17.71652 -17.7187,-17.71652 l -670.812493,0 z"
       id="rect3799"
       inkscape:connector-curvature="0" />
    <path
       style="fill:none;stroke:#000000;stroke-width:1;stroke-opacity:1"
       d="m 69.294197,171.33084 c -9.815,0 -17.7187,7.87272 -17.7187,17.6879 l 0,8.84394 -10.625,0 0,-3.53133 -3.5626,-3.53133 -7.0624,0 0,173.62884 7.0624,0 3.5626,-3.56258 0,-3.53132 10.625,0 0,8.87519 c 0,9.81518 7.9037,17.71914 17.7187,17.71914 l 510.531293,0 c 9.8149,0 17.7187,-7.90396 17.7187,-17.71914 l 0,-8.87519 10.625,0 0,3.53132 3.5625,3.56258 7.0625,0 0,-173.62884 -7.0625,0 -3.5625,3.53133 0,3.53133 -10.625,0 0,-8.84394 c 0,-9.81518 -7.9038,-17.6879 -17.7187,-17.6879 l -510.531293,0 z"
       id="rect3799-2-3"
       inkscape:connector-curvature="0" />
    <path
       style="fill:none;stroke:#000000;stroke-width:0.99999994;stroke-opacity:1"
       d="m 69.294197,-84.562465 c -9.8149,0 -17.7187,7.903965 -17.7187,17.719142 l 0,8.812694 -10.625,0 0,-3.531328 -3.5625,-3.531328 -7.0625,0 0,173.628835 7.0625,0 3.5625,-3.56258 0,-3.53133 10.625,0 0,8.8752 c 0,9.81517 7.9038,17.71914 17.7187,17.71914 l 354.656293,0 c 9.8149,0 17.7187,-7.90397 17.7187,-17.71914 l 0,-8.8752 10.625,0 0,3.53133 3.5625,3.56258 7.0625,0 0,-173.628835 -7.0625,0 -3.5625,3.531328 0,3.531328 -10.625,0 0,-8.812694 c 0,-9.815177 -7.9038,-17.719142 -17.7187,-17.719142 l -354.656293,0 z"
       id="rect3799-2-4"
       inkscape:connector-curvature="0" />
    <path
       style="fill:none;stroke:#000000;stroke-width:1;stroke-opacity:1"
       d="m 69.294247,-340.45572 c -9.81496,0 -17.71875,7.90397 -17.71875,17.71914 l 0,8.84395 -10.625,0 0,-3.53133 -3.5625,-3.53133 -7.0625,0 0,173.62884 7.0625,0 3.5625,-3.56258 0,-3.53133 10.625,0 0,8.84395 c 0,9.81518 7.90379,17.71914 17.71875,17.71914 l 203.281253,0 c 9.81496,0 17.71875,-7.90396 17.71875,-17.71914 l 0,-8.84395 10.625,0 0,3.53133 3.5625,3.56258 7.0625,0 0,-173.62884 -7.0625,0 -3.5625,3.53133 0,3.53133 -10.625,0 0,-8.84395 c 0,-9.81517 -7.90379,-17.71914 -17.71875,-17.71914 l -203.281253,0 z"
       id="rect3802-9-4"
       inkscape:connector-curvature="0" />
  </g>
  <g
     inkscape:groupmode="layer"
     id="layer2"
     inkscape:label="Info"
     style="display:inline">
    <text
       transform="translate(0,364.96067)"
       xml:space="preserve"
       style="font-size:40px;font-style:normal;font-variant:normal;font-weight:normal;font-stretch:normal;text-align:center;line-height:125%;letter-spacing:0px;word-spacing:0px;writing-mode:lr-tb;text-anchor:middle;fill:#000000;fill-opacity:1;stroke:none;font-family:Sans;-inkscape-font-specification:Sans"
       x="169.80206"
       y="-244.24438"
       id="text3750"
       sodipodi:linespacing="125%"><tspan
         sodipodi:role="line"
         id="tspan3752"
         x="169.80206"
         y="-244.24438">You need</tspan><tspan
         sodipodi:role="line"
         x="169.80206"
         y="-194.24438"
         id="tspan3793">10 of these</tspan></text>
    <text
       transform="translate(0,364.96067)"
       xml:space="preserve"
       style="font-size:40px;font-style:normal;font-variant:normal;font-weight:normal;font-stretch:normal;text-align:center;line-height:125%;letter-spacing:0px;word-spacing:0px;writing-mode:lr-tb;text-anchor:middle;fill:#000000;fill-opacity:1;stroke:none;font-family:Sans;-inkscape-font-specification:Sans"
       x="245.48953"
       y="11.648867"
       id="text3750-2"
       sodipodi:linespacing="125%"><tspan
         sodipodi:role="line"
         id="tspan3752-5"
         x="245.48953"
         y="11.648867">You need</tspan><tspan
         sodipodi:role="line"
         x="245.48953"
         y="61.648865"
         id="tspan3795">10 of these</tspan></text>
    <text
       transform="translate(0,364.96067)"
       xml:space="preserve"
       style="font-size:40px;font-style:normal;font-variant:normal;font-weight:normal;font-stretch:normal;text-align:center;line-height:125%;letter-spacing:0px;word-spacing:0px;writing-mode:lr-tb;text-anchor:middle;fill:#000000;fill-opacity:1;stroke:none;font-family:Sans;-inkscape-font-specification:Sans"
       x="323.42703"
       y="267.54218"
       id="text3750-2-1"
       sodipodi:linespacing="125%"><tspan
         sodipodi:role="line"
         id="tspan3752-5-2"
         x="323.42703"
         y="267.54218">You need</tspan><tspan
         sodipodi:role="line"
         x="323.42703"
         y="317.54218"
         id="tspan3795-8">10 of these</tspan></text>
    <text
       transform="translate(0,364.96067)"
       xml:space="preserve"
       style="font-size:40px;font-style:normal;font-variant:normal;font-weight:normal;font-stretch:normal;text-align:center;line-height:125%;letter-spacing:0px;word-spacing:0px;writing-mode:lr-tb;text-anchor:middle;fill:#000000;fill-opacity:1;stroke:none;font-family:Sans;-inkscape-font-specification:Sans"
       x="403.56769"
       y="523.46674"
       id="text3750-2-3"
       sodipodi:linespacing="125%"><tspan
         sodipodi:role="line"
         id="tspan3752-5-7"
         x="403.56769"
         y="523.46674">You need</tspan><tspan
         sodipodi:role="line"
         x="403.56769"
         y="573.46674"
         id="tspan3795-86">5 of these</tspan></text>
  </g>
</svg>
